<svg width="3532" height="1234" viewBox="0 0 3532 1234" fill="none" xmlns="http://www.w3.org/2000/svg"><path fill-rule="evenodd" clip-rule="evenodd" d="M2228.01 489.504c-122.93.001-212.09 104.495-212.09 240.901 0 67.588 20.82 124.65 57.55 164.882 36.78 40.279 89.09 63.228 151.07 63.228 65.98 0 126.64-15.587 165.71-69.065l.4-.538.79-1.097v-74.1L2381 823.918c-39 38.054-84.43 57.198-128.66 57.199-38.25 0-68.81-14.656-89.93-40.739-21.24-26.226-33.38-68.371-33.38-116.365v-.744h287.61v-27.543c0-58.12-18.69-111.626-51.86-146.857-33.2-35.262-80.49-59.365-136.77-59.365zm-1.74 58.978c-27.02.001-49.34 11.958-65.86 34.437-15.8 21.507-26.36 49.051-29.96 88.953h181.67c-.85-38.827-9.63-66.424-24.07-88.224-15.08-22.761-36.28-35.166-61.78-35.166zm-421.48 16.526v167.127c0 71.168-.66 142.314-4.71 213.38h120.8c-4.16-71.045-5.58-142.22-5.58-213.38V565.008l97.31.862v-70.781l-97.31.862v-68.087c0-27.434 5.73-47.385 15.38-60.327 9.47-12.682 23.19-19.309 41.02-19.309 24.44 0 45.27 12.266 65.25 25.022v-69.691l-1.34-1.229c-26.32-24.17-63.62-28.57-97.8-28.57-40.38 0-73.86 15.823-97.13 43.535-23.2 27.61-35.89 66.547-35.89 112.299v66.349l-83.41-.868v70.809l83.41-.876zm-416.67-276.072c-178.63 0-308.85 143.235-308.85 335.765 0 192.529 130.22 335.765 308.85 335.765 179.46-.002 309.69-143.225 309.69-335.765 0-192.541-130.23-335.764-309.69-335.765zm136.37 132.562c33.32 48.488 52.76 118.382 52.76 203.203s-19.44 154.715-52.76 203.202c-33.2 48.321-80.21 75.502-136.37 75.503-55.72 0-102.52-27.166-135.63-75.495-33.22-48.491-52.66-118.389-52.66-203.21 0-84.822 19.43-154.727 52.65-203.218 33.11-48.329 79.92-75.495 135.64-75.495 56.16.001 103.17 27.189 136.37 75.51zm963.97 310.637c0 71.187-1.53 142.306-5.58 213.38h121.68c-4.16-71.071-4.72-142.205-4.72-213.38V291.633h-116.95c8.21 146.716 5.57 293.638 5.57 440.502zm211.78-202.01c-.37-11.58-.1-23.328-2.91-34.636h118.32c0 157.274-5.46 293.026 5.68 450.026H2698.7c8.31-145.872 6.15-269.428 1.54-415.39zm57.99-249.313c-36.19.001-65.24 26.828-65.24 64.28 0 35.717 29.05 63.404 65.24 63.404 36.31-.001 64.37-27.807 64.38-63.404 0-37.332-28.06-64.278-64.38-64.28zm441.14 251.99c-28.28-27.446-69.01-43.189-118.97-43.19-68.32.001-127.56 22.539-169.8 72.754l-.49.574-.96 1.156v79.393l10.6-11.087c35.63-37.234 85.37-62.247 131.1-62.248 26.37 0 46.67 6.887 60.31 19.125 13.54 12.147 21.3 30.266 21.3 54.438v24.69l-113.58 30.006c-44.9 11.859-79.26 29.146-102.45 51.942-23.35 22.955-35.09 51.214-35.09 84.075 0 75.958 58.99 124.084 131.28 124.085 49.55-.001 94.48-25.061 120.7-67.203v54.203h114.35c-3.98-69.911-4.71-139.901-4.71-209.912v-91.886c0-44.796-15.3-83.458-43.59-110.915zM2984.9 822.291c0 19.337 6.64 35.265 17.64 46.34 11.01 11.076 26.76 17.69 45.71 17.69 45.93-.001 85.07-43.731 85.07-107.367v-57.453c-56.24 15.476-148.42 25.08-148.42 100.79z" fill="#101010"/><path d="M285.152 450.226c-57.507-318.444 607.466-68.606 607.466-68.606L373.16 905.25c-6.234 6.284-16.961 2.856-18.39-5.88-28.641-175.082-48.292-331.051-69.618-449.144z" fill="url(#paint0_linear_11704_11425)"/><path d="M940.194 290.236L361.018 874.952l26.363 26.114L966.56 316.351l-26.366-26.115z" fill="#101010"/><path opacity=".6" d="M595.738 831.106c-7.681 86.482-95.523 158.762-239.784 75.534-16.341-93.482-55.677-355.061-67.552-430.518 2.853 11.968 67.552 120.766 138.103 162.446 70.55 41.68 176.913 106.056 169.233 192.538z" fill="url(#paint1_linear_11704_11425)"/><circle cx="362.043" cy="900.646" r="45.741" transform="rotate(44.737 362.043 900.646)" fill="#101010"/><defs><linearGradient id="paint0_linear_11704_11425" x1="418.415" y1="938.709" x2="615.437" y2="294.28" gradientUnits="userSpaceOnUse"><stop stop-color="#5C1932"/><stop offset=".298" stop-color="#FF6E41"/><stop offset=".625" stop-color="#FCD5DB"/><stop offset=".822" stop-color="#F3F3F1"/></linearGradient><linearGradient id="paint1_linear_11704_11425" x1="362.925" y1="917.552" x2="479.976" y2="534.693" gradientUnits="userSpaceOnUse"><stop stop-color="#5C1932"/><stop offset=".298" stop-color="#FF6E41"/><stop offset=".625" stop-color="#FCD5DB"/><stop offset=".822" stop-color="#F3F3F1"/></linearGradient></defs></svg>