<svg width="1244" height="1237" viewBox="0 0 1244 1237" fill="none" xmlns="http://www.w3.org/2000/svg"><path d="M6.349 317.823C-97.224-255.711 1100.43 194.259 1100.43 194.259L164.857 1137.35c-11.228 11.31-30.548 5.14-33.122-10.6C80.151 811.422 44.758 530.514 6.349 317.823z" fill="url(#paint0_linear_11704_11314)"/><path d="M1186.11 29.678L142.983 1082.78l47.481 47.03L1233.6 76.712l-47.49-47.034z" fill="#101010"/><path opacity=".6" d="M565.722 1003.81c-13.833 155.76-172.041 285.94-431.862 136.04C104.428 971.484 33.582 500.366 12.195 364.465c5.138 21.553 121.665 217.505 248.73 292.573 127.065 75.068 318.63 191.012 304.797 346.772z" fill="url(#paint1_linear_11704_11314)"/><circle cx="144.82" cy="1129.05" r="82.382" transform="rotate(44.737 144.82 1129.05)" fill="#101010"/><defs><linearGradient id="paint0_linear_11704_11314" x1="246.363" y1="1197.61" x2="601.21" y2="36.955" gradientUnits="userSpaceOnUse"><stop stop-color="#5C1932"/><stop offset=".298" stop-color="#FF6E41"/><stop offset=".625" stop-color="#FCD5DB"/><stop offset=".822" stop-color="#F3F3F1"/></linearGradient><linearGradient id="paint1_linear_11704_11314" x1="146.414" y1="1159.5" x2="357.23" y2="469.952" gradientUnits="userSpaceOnUse"><stop stop-color="#5C1932"/><stop offset=".298" stop-color="#FF6E41"/><stop offset=".625" stop-color="#FCD5DB"/><stop offset=".822" stop-color="#F3F3F1"/></linearGradient></defs></svg>